<svg xmlns="http://www.w3.org/2000/svg" xmlns:xlink="http://www.w3.org/1999/xlink" viewBox="0 0 856 496.8"><defs><style>.cls-1{fill:#e5f1ff;}.cls-2,.cls-54{fill:#fff;}.cls-3{fill:#f1f5f8;}.cls-4{fill:#dee7ee;}.cls-5{fill:#dfe8f1;}.cls-6{fill:#b2b9e7;}.cls-7{fill:#d0d4ef;}.cls-8{fill:#edeef9;}.cls-9{fill:url(#linear-gradient);}.cls-10{fill:url(#linear-gradient-2);}.cls-11{fill:url(#linear-gradient-3);}.cls-12{fill:url(#linear-gradient-4);}.cls-13{fill:url(#linear-gradient-5);}.cls-14{fill:#eeeef8;}.cls-15{fill:#9f88d8;}.cls-16{fill:#c1a5f9;}.cls-17{fill:url(#linear-gradient-6);}.cls-18{fill:url(#linear-gradient-7);}.cls-19{fill:#dde0f3;}.cls-20{fill:url(#linear-gradient-8);}.cls-21{fill:url(#linear-gradient-9);}.cls-22{fill:url(#linear-gradient-10);}.cls-23{fill:url(#linear-gradient-11);}.cls-24{fill:url(#linear-gradient-12);}.cls-25{fill:url(#linear-gradient-13);}.cls-26{fill:url(#linear-gradient-14);}.cls-27{fill:url(#linear-gradient-15);}.cls-28{fill:url(#linear-gradient-16);}.cls-29{fill:#ffbfab;}.cls-30{fill:#1c2c3a;}.cls-31{opacity:0.2;}.cls-32{fill:url(#linear-gradient-17);}.cls-33{opacity:0.15;}.cls-34{fill:#21386e;}.cls-35{fill:url(#linear-gradient-18);}.cls-36{fill:url(#linear-gradient-19);}.cls-37{fill:#683766;}.cls-38{opacity:0.25;}.cls-39{fill:url(#linear-gradient-20);}.cls-40{fill:url(#linear-gradient-21);}.cls-41{fill:url(#linear-gradient-22);}.cls-42{fill:url(#linear-gradient-23);}.cls-43{fill:url(#linear-gradient-24);}.cls-44{fill:url(#linear-gradient-25);}.cls-45{fill:url(#linear-gradient-26);}.cls-46{fill:url(#linear-gradient-27);}.cls-47{fill:url(#linear-gradient-28);}.cls-48{fill:url(#linear-gradient-29);}.cls-49{fill:url(#linear-gradient-30);}.cls-50{fill:url(#linear-gradient-31);}.cls-51{fill:url(#linear-gradient-32);}.cls-52{fill:url(#linear-gradient-33);}.cls-53{fill:url(#linear-gradient-34);}.cls-54{font-size:12px;}.cls-54,.cls-57{font-family:Montserrat-ExtraBold, Montserrat;font-weight:800;}.cls-55,.cls-57{font-size:12.97px;fill:#7f47dd;}.cls-55{font-family:Montserrat-Medium, Montserrat;font-weight:500;}.cls-56{letter-spacing:-0.01em;}.cls-58{letter-spacing:-0.02em;}</style><linearGradient id="linear-gradient" x1="278.24" y1="385.72" x2="363.34" y2="385.72" gradientUnits="userSpaceOnUse"><stop offset="0" stop-color="#ffb081"/><stop offset="1" stop-color="#ff6d96"/></linearGradient><linearGradient id="linear-gradient-2" x1="869.66" y1="678.05" x2="996.9" y2="678.05" gradientUnits="userSpaceOnUse"><stop offset="0" stop-color="#894d84"/><stop offset="1" stop-color="#a06a9d"/></linearGradient><linearGradient id="linear-gradient-3" x1="679.18" y1="652.83" x2="751.42" y2="652.83" gradientUnits="userSpaceOnUse"><stop offset="0" stop-color="#8e97ff"/><stop offset="1" stop-color="#bcdefe"/></linearGradient><linearGradient id="linear-gradient-4" x1="718.17" y1="699.22" x2="750.81" y2="699.22" xlink:href="#linear-gradient-3"/><linearGradient id="linear-gradient-5" x1="745.06" y1="672.33" x2="777.69" y2="672.33" xlink:href="#linear-gradient-3"/><linearGradient id="linear-gradient-6" x1="1033.62" y1="519.69" x2="1096.67" y2="519.69" xlink:href="#linear-gradient"/><linearGradient id="linear-gradient-7" x1="902.24" y1="519.69" x2="965.28" y2="519.69" xlink:href="#linear-gradient"/><linearGradient id="linear-gradient-8" x1="34.12" y1="73.98" x2="169.36" y2="73.98" gradientUnits="userSpaceOnUse"><stop offset="0" stop-color="#ea84de"/><stop offset="1" stop-color="#c352f7"/></linearGradient><linearGradient id="linear-gradient-9" x1="117.03" y1="118.94" x2="139.69" y2="118.94" xlink:href="#linear-gradient-8"/><linearGradient id="linear-gradient-10" x1="130.34" y1="118.94" x2="153" y2="118.94" xlink:href="#linear-gradient"/><linearGradient id="linear-gradient-11" x1="42.03" y1="88.73" x2="74.04" y2="88.73" xlink:href="#linear-gradient"/><linearGradient id="linear-gradient-12" x1="85.37" y1="88.91" x2="117.39" y2="88.91" xlink:href="#linear-gradient"/><linearGradient id="linear-gradient-13" x1="128.9" y1="89.45" x2="134.29" y2="89.45" xlink:href="#linear-gradient"/><linearGradient id="linear-gradient-14" x1="137.53" y1="89.45" x2="142.92" y2="89.45" xlink:href="#linear-gradient"/><linearGradient id="linear-gradient-15" x1="146.16" y1="89.45" x2="151.56" y2="89.45" xlink:href="#linear-gradient"/><linearGradient id="linear-gradient-16" x1="154.43" y1="89.45" x2="159.83" y2="89.45" xlink:href="#linear-gradient"/><linearGradient id="linear-gradient-17" x1="353.88" y1="497.88" x2="401.14" y2="451.61" xlink:href="#linear-gradient-8"/><linearGradient id="linear-gradient-18" x1="1011.36" y1="795.98" x2="1169.88" y2="704.41" xlink:href="#linear-gradient-8"/><linearGradient id="linear-gradient-19" x1="1201.96" y1="719.4" x2="1259.06" y2="625.86" xlink:href="#linear-gradient-3"/><linearGradient id="linear-gradient-20" x1="1250.54" y1="676.87" x2="1323.98" y2="676.87" xlink:href="#linear-gradient-2"/><linearGradient id="linear-gradient-21" x1="1107.07" y1="764.63" x2="1313.98" y2="764.63" xlink:href="#linear-gradient-2"/><linearGradient id="linear-gradient-22" x1="1309.91" y1="582.39" x2="1316.17" y2="582.39" xlink:href="#linear-gradient"/><linearGradient id="linear-gradient-23" x1="1233.46" y1="796.87" x2="1267.21" y2="796.87" gradientTransform="matrix(-1, 0, 0, 1, 2627.06, 0)" xlink:href="#linear-gradient"/><linearGradient id="linear-gradient-24" x1="1200.85" y1="852.93" x2="1293.52" y2="852.93" gradientTransform="matrix(-1, 0, 0, 1, 2022.06, -401.36)" xlink:href="#linear-gradient-3"/><linearGradient id="linear-gradient-25" x1="1219.73" y1="796.87" x2="1253.48" y2="796.87" gradientTransform="matrix(-1, 0, 0, 1, 2627.06, 0)" xlink:href="#linear-gradient"/><linearGradient id="linear-gradient-26" x1="1277.79" y1="852.93" x2="1299.81" y2="852.93" gradientTransform="matrix(-1, 0, 0, 1, 2022.06, -401.36)" xlink:href="#linear-gradient-3"/><linearGradient id="linear-gradient-27" x1="1288.24" y1="808.31" x2="1287.67" y2="894.12" gradientTransform="matrix(-1, 0, 0, 1, 2022.06, -401.36)" xlink:href="#linear-gradient-3"/><linearGradient id="linear-gradient-28" x1="1303.06" y1="888.72" x2="1267.02" y2="896.16" gradientTransform="matrix(-1, 0, 0, 1, 2022.06, -401.36)" xlink:href="#linear-gradient-3"/><linearGradient id="linear-gradient-29" x1="1322.72" y1="764.21" x2="1367.48" y2="764.21" gradientTransform="matrix(-1, 0, 0, 1, 2627.06, 0)" xlink:href="#linear-gradient-3"/><linearGradient id="linear-gradient-30" x1="1279.48" y1="838.56" x2="1402.38" y2="838.56" gradientTransform="matrix(-1, 0, 0, 1, 2022.06, -401.36)" xlink:href="#linear-gradient"/><linearGradient id="linear-gradient-31" x1="1304.51" y1="764.21" x2="1349.27" y2="764.21" gradientTransform="matrix(-1, 0, 0, 1, 2627.06, 0)" xlink:href="#linear-gradient-3"/><linearGradient id="linear-gradient-32" x1="1381.52" y1="838.56" x2="1410.72" y2="838.56" gradientTransform="matrix(-1, 0, 0, 1, 2022.06, -401.36)" xlink:href="#linear-gradient"/><linearGradient id="linear-gradient-33" x1="1395.38" y1="779.39" x2="1394.62" y2="893.19" gradientTransform="matrix(-1, 0, 0, 1, 2022.06, -401.36)" xlink:href="#linear-gradient"/><linearGradient id="linear-gradient-34" x1="1415.03" y1="886.03" x2="1367.23" y2="895.89" gradientTransform="matrix(-1, 0, 0, 1, 2022.06, -401.36)" xlink:href="#linear-gradient"/></defs><g id="Illustration"><g id="Background"><path class="cls-1" d="M605,897.6h850.7s-24.3-148.8-192.3-116.4-122.7-55.6-156.2-92.3-140.5-65-196.3,17.1-103.7,86.6-125.4,78.1-75.5,3.2-87.9,42.6S620.8,891.1,605,897.6Z" transform="translate(-605 -401.4)"/></g><g id="Window"><rect class="cls-2" x="549.4" y="58.4" width="293" height="192.96"/><ellipse class="cls-3" cx="776.7" cy="150.9" rx="65.4" ry="72.2"/><path class="cls-4" d="M1387,513.7v43.6l29.3-31.5L1392,559.4l-.7,49.3,35-35L1392,614.4v37.9h-12.8l2.8-65.7-35.7-45.8,35.7,38.6Z" transform="translate(-605 -401.4)"/><ellipse class="cls-3" cx="664.5" cy="179.1" rx="47.2" ry="52.1"/><path class="cls-4" d="M1273.3,552.7v31.4l21.2-22.7-17.6,24.3-.5,35.5,25.3-25.2-24.8,29.4v27.3h-9.2l2-47.4-25.7-33,25.7,27.8Z" transform="translate(-605 -401.4)"/><path class="cls-5" d="M1138.7,467.6V453.3H1461v14.3h-11.4V648.4H1461V662H1138.7V648.4h11.4V467.6Zm166.1,174.7h137.3v-80H1304.8Zm0-88.6h137.3v-80H1304.8Zm-147.2,88.6h137.2v-80H1157.6Zm0-88.6h137.2v-80H1157.6Z" transform="translate(-605 -401.4)"/></g><g id="Mobile"><rect class="cls-6" x="198.2" y="49" width="214.8" height="447.81" rx="30.1"/><rect class="cls-7" x="215.4" y="48.6" width="214.8" height="447.81" rx="30.1"/><rect class="cls-8" x="230.4" y="108.1" width="182.6" height="329.1"/><rect class="cls-9" x="278.2" y="373.4" width="85.1" height="24.67" rx="12.3"/><path class="cls-10" d="M996.9,625.8l-1.1-3.9L979,626.8l-3.5,13.3H869.7l27.7,58.2h62.3L954.8,716H891.1v4h10.3a7.6,7.6,0,0,0-3.2,6.3,7.8,7.8,0,0,0,7.8,7.9,7.9,7.9,0,0,0,7.9-7.9,7.7,7.7,0,0,0-3.3-6.3h25.2a7.6,7.6,0,0,0-3.2,6.3,7.9,7.9,0,1,0,15.7,0A7.7,7.7,0,0,0,945,720h12.9l6-21.7h.1l15.7-58.2h0l2.6-10.1Zm-24.2,24.9-3.9,14.2H952l3.1-20.8h19.3Zm-46.4,18.2-.2,25.3H913.7l-4.1-25.3Zm-17.3-4-3.4-20.8h20.9l-.2,20.8Zm21.4,4h16.9l-3.7,25.3H930.2Zm0-4V644.1H951l-3.1,20.8Zm-28.9-20.8,3.4,20.8H886l-9.9-20.8Zm-13.6,24.8h17.6l4.1,25.3H900Zm59.8,25.3,3.7-25.3h16.3l-5.6,20.8-1.2,4.5Z" transform="translate(-605 -401.4)"/></g><g id="Gear"><path class="cls-11" d="M745.3,644.5a40.2,40.2,0,0,0-2.9-7.2l2.5-5.7-8.7-8.4-5.7,2.4a28.4,28.4,0,0,0-7.2-2.8l-2-6H709.1l-2.2,6a31.6,31.6,0,0,0-7.2,2.8l-5.7-2.4-8.5,8.4,2.5,5.7a30.2,30.2,0,0,0-2.9,7.2l-5.9,2.3v12.1l5.9,2.2a30.2,30.2,0,0,0,2.9,7.2l-2.5,5.8,8.7,8.4,5.7-2.5a25.3,25.3,0,0,0,7.2,2.9l2.2,6h12l2.2-6a27.9,27.9,0,0,0,7.2-2.9l5.7,2.5,8.7-8.4-2.5-5.8a27.1,27.1,0,0,0,2.9-7.2l5.9-2.2V646.8Zm-30.2,23a14.8,14.8,0,1,1,14.8-14.8A14.8,14.8,0,0,1,715.1,667.5Z" transform="translate(-605 -401.4)"/><path class="cls-12" d="M748.8,701a10.3,10.3,0,0,0,0-3.5l2-2.1-2-5.1h-2.9a29.5,29.5,0,0,0-2.5-2.5V685l-5.1-2.1-2.1,2.1a6.9,6.9,0,0,0-3.5,0l-2-2.1-5.1,2.1v2.8a19.7,19.7,0,0,0-2.5,2.5h-2.9l-2,5.1,2,2.1a10.3,10.3,0,0,0,0,3.5l-2,2,2,5.1h2.9a14.8,14.8,0,0,0,2.5,2.5v2.9l5.1,2,2-2a10.3,10.3,0,0,0,3.5,0l2.1,2,5.1-2v-2.9a19.6,19.6,0,0,0,2.5-2.5h2.9l2-5.1Zm-16.5,4.3a6.6,6.6,0,1,1,8.7-3.7A6.7,6.7,0,0,1,732.3,705.3Z" transform="translate(-605 -401.4)"/><path class="cls-13" d="M775.6,674.1a10.3,10.3,0,0,0,0-3.5l2.1-2.1-2.1-5.1h-2.8c-.6-.8-1.7-1.6-2.5-2.5v-2.8l-5.1-2.1-2.1,2.1a10.3,10.3,0,0,0-3.5,0l-2-2.1-5.2,2.1v2.8c-.8.7-1.6,1.7-2.4,2.5h-2.9l-2,5.1,2,2.1a10.3,10.3,0,0,0,0,3.5l-2,2,2,5.2H750a27.2,27.2,0,0,0,2.4,2.4v2.9l5.2,2,2-2a10.3,10.3,0,0,0,3.5,0l2.1,2,5.1-2v-2.9c.8-.6,1.6-1.6,2.5-2.4h2.8l2.1-5.2ZM759,678.6a6.5,6.5,0,0,1-3.7-8.6c1.5-3.5,5.4-5.2,8.6-3.7a6.6,6.6,0,0,1-4.9,12.3Z" transform="translate(-605 -401.4)"/></g><g id="Shirt_screen" data-name="Shirt screen"><path d="M1155.1,522.8" transform="translate(-605 -401.4)"/><path class="cls-7" d="M1106,408.8l9,178.8a7.8,7.8,0,0,1-7.8,8.3H870.8a7.9,7.9,0,0,1-7.9-7.5l-9.1-178.8a7.9,7.9,0,0,1,7.9-8.2h236.4A7.9,7.9,0,0,1,1106,408.8Z" transform="translate(-605 -401.4)"/><path class="cls-14" d="M1119.1,408.8l9.1,178.8a7.9,7.9,0,0,1-7.9,8.3H883.9a8,8,0,0,1-7.9-7.5l-9-178.8a7.7,7.7,0,0,1,7.8-8.2h236.4A7.8,7.8,0,0,1,1119.1,408.8Z" transform="translate(-605 -401.4)"/><polygon class="cls-2" points="504.4 9.7 401.9 9.7 408 139.3 510.5 139.3 504.4 9.7"/><polygon class="cls-2" points="376.5 9.7 274 9.7 280.1 139.3 382.6 139.3 376.5 9.7"/><path class="cls-15" d="M925.6,433.4s2.6,8.3,6.1,8.8,3.5-.9,7.1-8.8v14H925.6Z" transform="translate(-605 -401.4)"/><path class="cls-16" d="M1041.5,431.2h9.2c.7,8,5.8,9.4,8.3,9.6s7.7-1.6,8.3-9.6h9.3a8,8,0,0,1,4,1.1l14.8,8.6-6.2,11.3-11.4-3.5,3.6,44.7h-39.5l-.8-44.7-12.3,3.5-6.1-11.3,14.7-8.6A8.7,8.7,0,0,1,1041.5,431.2Z" transform="translate(-605 -401.4)"/><path class="cls-16" d="M921.1,466.3c1.6-3.4.1-8.3-3.8-14.8a4.3,4.3,0,0,1-.6-2.2V434.1a2.5,2.5,0,0,1,2-2.5,24.6,24.6,0,0,1,5.1-.6,2.5,2.5,0,0,1,2.6,2.4c.1,11.4,6,11.2,6,11.2,3.7.2,4.6-4.2,5.5-11a2.7,2.7,0,0,1,2.4-2.2,26.1,26.1,0,0,1,5.4.6,2.7,2.7,0,0,1,2.1,2.5v15.3a3.9,3.9,0,0,1-.6,2.1c-3.8,6.6-3.9,12-2.1,14.8,11.9,18,11.4,27.1,11.4,27.1l-45.1-.4S911.4,485.5,921.1,466.3Z" transform="translate(-605 -401.4)"/><path class="cls-17" d="M1096.7,519.3h0a8.9,8.9,0,0,0-8.8-8.4h-45.5a8.8,8.8,0,0,0-8.8,9.2h0a8.8,8.8,0,0,0,8.8,8.3h45.5A8.8,8.8,0,0,0,1096.7,519.3Z" transform="translate(-605 -401.4)"/><path class="cls-18" d="M965.3,519.3h0a8.9,8.9,0,0,0-8.8-8.4H911a8.8,8.8,0,0,0-8.8,9.2h0a8.8,8.8,0,0,0,8.8,8.3h45.5A8.8,8.8,0,0,0,965.3,519.3Z" transform="translate(-605 -401.4)"/><rect class="cls-19" x="292.8" y="152" width="55.2" height="9.63" rx="4.8"/><rect class="cls-19" x="293.3" y="172.6" width="92.4" height="9.63" rx="4.8"/><rect class="cls-19" x="420.7" y="152" width="55.2" height="9.63" rx="4.8"/><rect class="cls-19" x="421.2" y="172.6" width="92.4" height="9.63" rx="4.8"/></g><g id="Credit_Card" data-name="Credit Card"><rect class="cls-7" x="34.1" y="51.3" width="135.2" height="92.44" rx="8.6"/><rect class="cls-14" x="34.1" y="67.3" width="135.2" height="30.21"/><rect class="cls-20" x="34.1" y="67.3" width="135.2" height="13.31"/><circle class="cls-21" cx="128.4" cy="118.9" r="11.3"/><circle class="cls-22" cx="141.7" cy="118.9" r="11.3"/><rect class="cls-14" x="54.1" y="111.6" width="48.6" height="5.4" rx="2.7"/><rect class="cls-14" x="54.1" y="122.8" width="48.6" height="5.4" rx="2.7"/><rect class="cls-23" x="42" y="85.9" width="32" height="5.76" rx="2.9"/><rect class="cls-24" x="85.4" y="86" width="32" height="5.76" rx="2.9"/><circle class="cls-25" cx="131.6" cy="89.4" r="2.7"/><circle class="cls-26" cx="140.2" cy="89.4" r="2.7"/><circle class="cls-27" cx="148.9" cy="89.4" r="2.7"/><circle class="cls-28" cx="157.1" cy="89.4" r="2.7"/></g><g id="Woman"><path class="cls-29" d="M1307.6,599.3l-3.4,10.1-10.9,46.1-23-6.1c.4-1.5,1.8-7.7,3-13,.7-3.4,1.4-6.5,1.7-7.6v-.4s-25.8,1.3-14.9-33.2,34.5-25,34.5-25S1313.3,572.7,1307.6,599.3Z" transform="translate(-605 -401.4)"/><polygon class="cls-29" points="415 389.8 405.4 398.3 400.7 402.5 382.8 387.8 392.2 379.5 397.2 375.2 415 389.8"/><polygon class="cls-30" points="403.5 400.5 385.9 384.6 355.8 379.5 394.4 414.5 403.5 400.5"/><polygon class="cls-29" points="423.7 464.3 419.2 472.9 414.1 482.5 391.1 483.6 398.8 468.8 400.7 465.3 423.7 464.3"/><polygon class="cls-31" points="423.7 464.3 419.2 472.9 398.8 468.8 400.7 465.3 423.7 464.3"/><polygon class="cls-31" points="415 389.8 405.4 398.3 392.2 379.5 397.2 375.2 415 389.8"/><polygon class="cls-30" points="415.7 480 391.9 479.9 366.2 496.3 418.2 496.4 415.7 480"/><polygon class="cls-32" points="574.6 329.1 562.5 348.6 538.5 387.5 477.9 378.2 434.2 467.3 396.6 467.3 420 406.4 446.9 336.5 527.4 318 574.6 329.1"/><polygon class="cls-33" points="574.6 329.1 562.5 348.6 512.7 342.7 420 406.4 446.9 336.5 527.4 318 574.6 329.1"/><rect class="cls-34" x="1167" y="557.5" width="8.6" height="45" rx="3" transform="translate(-709.9 -103.6) rotate(-13.9)"/><path class="cls-35" d="M1199.5,742.9l-83-10.8-91.9,72.2L996.2,779l98.7-86.5a14.5,14.5,0,0,1,12.3-3.4l113.7,21.3Z" transform="translate(-605 -401.4)"/><path class="cls-29" d="M1190.9,621.8c-.3,1.8-.4,2.9-.4,2.9l-13.3,5.3-2.3-9.6-.3-.3-11.3-15.3V590.3c.7-3.3,4-10,4-10l4,10.6c5.9,11.3,11.9,8,11.9,8-2-12.6,4.6-18.6,4.6-18.6.7,4.7,3.3,19.2,3.3,19.2C1192.6,606.3,1191.5,616.8,1190.9,621.8Z" transform="translate(-605 -401.4)"/><path class="cls-31" d="M1191.9,620.8l-.5,3.3-14.7,5.9-2.7-10.7-.2-.4Z" transform="translate(-605 -401.4)"/><path class="cls-36" d="M1273.4,636.7l22.2,5.9,7.4,13.3-25.1,82-84.7-18.2-9.8-42.4-12.3-50.2,22.6-5.9,22.9,58.3S1259.4,641.9,1273.4,636.7Z" transform="translate(-605 -401.4)"/><polygon class="cls-37" points="560.6 397.1 552.9 414.6 517 496 508.9 496 539.2 409.5 543.6 397.1 560.6 397.1"/><path class="cls-33" d="M1273.3,650.2s26.2,17.7-17.1,49.8-66.3,12.5-66.3,12.5,33.5,14.5,67.6-19C1257.5,693.5,1286.4,673.1,1273.3,650.2Z" transform="translate(-605 -401.4)"/><polygon class="cls-37" points="667 496 658.8 496 637.5 426.3 628.5 397.1 645.5 397.1 652.3 428.3 667 496"/><path class="cls-38" d="M1165.6,798.4l-7.7,17.6-13.7-5.1,4.4-12.5Z" transform="translate(-605 -401.4)"/><path class="cls-39" d="M1324,628.3c-1.1,34.3-14.4,102.4-14.4,102.4l-59.1-7.4.8-1.1,63.3-96.9a5.1,5.1,0,0,1,8.7.2A6.1,6.1,0,0,1,1324,628.3Z" transform="translate(-605 -401.4)"/><polygon class="cls-38" points="652.3 428.3 637.5 426.3 628.5 397.1 645.5 397.1 652.3 428.3"/><path class="cls-33" d="M1324,628.3c-1.1,34.3-14.4,102.4-14.4,102.4l-59.1-7.4.8-1.1c57.7-3.9,69.6-74.2,72-96.7A6.1,6.1,0,0,1,1324,628.3Z" transform="translate(-605 -401.4)"/><path class="cls-40" d="M1313.5,736.9l-26.8,77.4a13.7,13.7,0,0,1-14.9,9.1l-156.1-22.1a10,10,0,0,1-7.2-15.1h.1l48.9-80.4,148.9,19.7a8.8,8.8,0,0,1,7.5,7.4A8.4,8.4,0,0,1,1313.5,736.9Z" transform="translate(-605 -401.4)"/><path class="cls-31" d="M1293.5,621.6s-2.8,9.8-20.2,14.8c.7-3.4,1.4-6.5,1.7-7.6C1280.1,628,1287.3,626.1,1293.5,621.6Z" transform="translate(-605 -401.4)"/><path class="cls-33" d="M1313.5,736.9l-26.8,77.4a13.7,13.7,0,0,1-14.9,9.1l-156.1-22.1a10,10,0,0,1-7.2-15.1h.1c4.6,1.1,157.3,38.7,205.3-53.3A8.4,8.4,0,0,1,1313.5,736.9Z" transform="translate(-605 -401.4)"/><path class="cls-30" d="M1341.2,586.3s-3.2-20-20.1-15.9c0,0-9.1,5.1-11,7.7a43.9,43.9,0,0,0-36.4-11.5s-11.4,1.6-8.7,12.9c1,4.5,3.3,10.6,14.2,12.9a27.6,27.6,0,0,1-7.8-6.3c4.8,2.1,11.3,2.8,17,4.6l-.7,8.7,3.5-.3,4.8-5.8s9-2.6,10,3.7c.6,4.5-5,7.6-5,7.6s-1.9,7.9,1.8,11.7a10,10,0,0,0,4-3.4s-7.4,18.1,12.9,20.8c0,0-6.7-2.5-6.5-7.6,0,0,5.4,9.2,15.3,6,0,0,3.9-1.5,4.2-8.8,0,0-3.9,10.2-12.5,5.4,0,0,7,2.3,8.9-4.8,0,0-5.3,7.7-9.1-.6,0,0-3-4.8,7.9-13,0,0,7.7-7.2,10.6-14.4,0,0,.3,6.6-3.6,10.2C1334.9,606.1,1343.4,604.1,1341.2,586.3Z" transform="translate(-605 -401.4)"/><path class="cls-41" d="M1314.8,589.8c-.1.2-1.3-6.9-4.6-11.4a1.9,1.9,0,0,1,.5-2.5l.8-.6a1.8,1.8,0,0,1,2.6.7C1315.5,578.8,1317.6,584.5,1314.8,589.8Z" transform="translate(-605 -401.4)"/></g><g id="Blue_Bag" data-name="Blue Bag"><path class="cls-42" d="M1376.7,780.3c9.5,0,16.9,12.7,16.9,28.9a28.1,28.1,0,0,1-.1,2.9,1.4,1.4,0,0,1-1.4,1.4h0a1.4,1.4,0,0,1-1.4-1.6v-2.7c0-14.1-6.4-26.1-14-26.1s-14,12-14,26.1a24.4,24.4,0,0,0,.1,2.7,1.5,1.5,0,0,1-1.4,1.6h0a1.5,1.5,0,0,1-1.5-1.4v-2.9C1359.9,793,1367.3,780.3,1376.7,780.3Z" transform="translate(-605 -401.4)"/><rect class="cls-43" x="728.5" y="407.5" width="92.7" height="88.09"/><path class="cls-44" d="M1390.5,780.3c9.4,0,16.8,12.7,16.8,28.9a28.1,28.1,0,0,1-.1,2.9,1.4,1.4,0,0,1-1.4,1.4h0a1.4,1.4,0,0,1-1.4-1.6c0-.9.1-1.8.1-2.7,0-14.1-6.4-26.1-14-26.1s-14.1,12-14.1,26.1c0,.9.1,1.8.1,2.7a1.4,1.4,0,0,1-1.4,1.6h0a1.4,1.4,0,0,1-1.4-1.4,28.1,28.1,0,0,1-.1-2.9C1373.6,793,1381,780.3,1390.5,780.3Z" transform="translate(-605 -401.4)"/><rect class="cls-45" x="728.5" y="407.5" width="22" height="88.09"/><rect class="cls-46" x="728.5" y="407.5" width="11.2" height="88.09"/><polygon class="cls-47" points="728.5 495.5 728.5 495.6 750.5 495.6 739.6 485.3 728.5 495.5"/></g><g id="Orange_Bag" data-name="Orange Bag"><path class="cls-48" d="M1282,742.2c12.5,0,22.3,16.8,22.3,38.3,0,1.3,0,2.6-.1,3.9a1.9,1.9,0,0,1-1.9,1.8h0a1.9,1.9,0,0,1-1.9-2c.1-1.2.1-2.4.1-3.7,0-18.7-8.5-34.5-18.5-34.5s-18.6,15.8-18.6,34.5c0,1.3,0,2.5.1,3.7a1.9,1.9,0,0,1-1.9,2h0a1.9,1.9,0,0,1-1.9-1.8c-.1-1.3-.1-2.6-.1-3.9C1259.6,759,1269.4,742.2,1282,742.2Z" transform="translate(-605 -401.4)"/><rect class="cls-49" x="619.7" y="378.8" width="122.9" height="116.83"/><path class="cls-50" d="M1300.2,742.2c12.5,0,22.3,16.8,22.3,38.3,0,1.3,0,2.6-.1,3.9a1.9,1.9,0,0,1-1.9,1.8h0a1.9,1.9,0,0,1-1.9-2c.1-1.2.2-2.4.2-3.7,0-18.7-8.6-34.5-18.6-34.5s-18.6,15.8-18.6,34.5c0,1.3,0,2.5.1,3.7a1.9,1.9,0,0,1-1.9,2h0a1.9,1.9,0,0,1-1.9-1.8c-.1-1.3-.1-2.6-.1-3.9C1277.8,759,1287.6,742.2,1300.2,742.2Z" transform="translate(-605 -401.4)"/><rect class="cls-51" x="619.7" y="378.8" width="29.2" height="116.83"/><rect class="cls-52" x="619.7" y="378.8" width="14.8" height="116.83"/><polygon class="cls-53" points="619.7 495.5 619.7 495.6 648.8 495.6 634.3 482 619.7 495.5"/></g><text class="cls-54" transform="translate(316.8 122.9)">BID</text><text class="cls-54" transform="translate(449.8 122.9)">BID</text><text class="cls-55" transform="translate(73.7 64.2)">Li<tspan class="cls-56" x="11.3" y="0">v</tspan><tspan x="18.4" y="0">e Bid</tspan></text><text class="cls-57" transform="translate(362.7 14.2)">Li<tspan class="cls-58" x="12" y="0">v</tspan><tspan x="19.8" y="0">e Bid</tspan></text></g></svg>